# WaveFront *.obj file (generated by Autodesk ATF)

mtllib Barrel2 attachment.mtl

g Body10

v 38.900000 0.000000 6.850000
v 38.900000 0.000000 11.850000
v 38.900000 5.000000 11.850000
v 38.900000 5.000000 6.850000
v 36.400000 0.000000 6.850000
v 36.400000 5.000000 6.850000
v 36.400000 0.000000 5.850000
v 36.400000 5.000000 5.850000
v 40.400001 0.000000 5.850000
v 40.400001 5.000000 5.850000
v 40.400001 0.000000 13.850000
v 40.400001 5.000000 13.850000
v 35.400001 0.000000 13.850000
v 35.400001 5.000000 13.850000
v 35.400001 0.000000 15.850000
v 35.400001 5.000000 15.850000
v 33.900001 0.000000 15.850000
v 33.900001 5.000000 15.850000
v 33.900001 0.000000 11.850000
v 33.900001 5.000000 11.850000
vt 0.000000 0.000000 0.000000
vt 0.500000 0.000000 0.000000
vt 0.000000 0.500000 0.000000
vt 0.500000 0.500000 0.000000
vt 0.000000 0.000000 0.000000
vt 0.250000 0.000000 0.000000
vt 0.000000 0.500000 0.000000
vt 0.250000 0.500000 0.000000
vt 0.000000 0.000000 0.000000
vt 0.100000 0.000000 0.000000
vt 0.000000 0.500000 0.000000
vt 0.100000 0.500000 0.000000
vt -0.000000 0.000000 0.000000
vt 0.400000 0.000000 0.000000
vt -0.000000 0.500000 0.000000
vt 0.400000 0.500000 0.000000
vt -0.000000 0.000000 0.000000
vt 0.800000 0.000000 0.000000
vt -0.000000 0.500000 0.000000
vt 0.800000 0.500000 0.000000
vt 0.000000 0.000000 0.000000
vt 0.500000 0.000000 0.000000
vt 0.000000 0.500000 0.000000
vt 0.500000 0.500000 0.000000
vt 0.000000 0.000000 0.000000
vt 0.200000 0.000000 0.000000
vt 0.000000 0.500000 0.000000
vt 0.200000 0.500000 0.000000
vt 0.000000 0.000000 0.000000
vt 0.150000 0.000000 0.000000
vt 0.000000 0.500000 0.000000
vt 0.150000 0.500000 0.000000
vt 0.000000 0.000000 0.000000
vt 0.400000 0.000000 0.000000
vt 0.000000 0.500000 0.000000
vt 0.400000 0.500000 0.000000
vt 0.000000 0.000000 0.000000
vt 0.500000 0.000000 0.000000
vt 0.000000 0.500000 0.000000
vt 0.500000 0.500000 0.000000
vt 0.100000 -0.325000 0.000000
vt 0.300000 -0.175000 0.000000
vt 0.100000 0.175000 0.000000
vt 0.300000 0.325000 0.000000
vt -0.500000 0.325000 0.000000
vt 0.500000 -0.325000 0.000000
vt 0.500000 -0.175000 0.000000
vt -0.400000 0.175000 0.000000
vt -0.500000 -0.075000 0.000000
vt -0.400000 -0.075000 0.000000
vt 0.325000 -0.500000 0.000000
vt 0.325000 -0.100000 0.000000
vt 0.175000 -0.300000 0.000000
vt -0.175000 -0.100000 0.000000
vt -0.325000 -0.300000 0.000000
vt -0.325000 0.500000 0.000000
vt -0.175000 0.400000 0.000000
vt 0.075000 0.500000 0.000000
vt 0.075000 0.400000 0.000000
vt 0.175000 -0.500000 0.000000
vn -0.100000 0.000000 0.000000
vn -0.100000 0.000000 0.000000
vn -0.100000 0.000000 0.000000
vn -0.100000 0.000000 0.000000
vn 0.000000 -0.000000 0.100000
vn 0.000000 -0.000000 0.100000
vn 0.000000 -0.000000 0.100000
vn 0.000000 -0.000000 0.100000
vn -0.100000 0.000000 0.000000
vn -0.100000 0.000000 0.000000
vn -0.100000 0.000000 0.000000
vn -0.100000 0.000000 0.000000
vn 0.000000 0.000000 -0.100000
vn 0.000000 0.000000 -0.100000
vn 0.000000 0.000000 -0.100000
vn 0.000000 0.000000 -0.100000
vn 0.100000 0.000000 0.000000
vn 0.100000 0.000000 0.000000
vn 0.100000 0.000000 0.000000
vn 0.100000 0.000000 0.000000
vn 0.000000 0.000000 0.100000
vn 0.000000 0.000000 0.100000
vn 0.000000 0.000000 0.100000
vn 0.000000 0.000000 0.100000
vn 0.100000 -0.000000 0.000000
vn 0.100000 -0.000000 0.000000
vn 0.100000 -0.000000 0.000000
vn 0.100000 -0.000000 0.000000
vn 0.000000 0.000000 0.100000
vn 0.000000 0.000000 0.100000
vn 0.000000 0.000000 0.100000
vn 0.000000 0.000000 0.100000
vn -0.100000 0.000000 0.000000
vn -0.100000 0.000000 0.000000
vn -0.100000 0.000000 0.000000
vn -0.100000 0.000000 0.000000
vn 0.000000 0.000000 -0.100000
vn 0.000000 0.000000 -0.100000
vn 0.000000 0.000000 -0.100000
vn 0.000000 0.000000 -0.100000
vn 0.000000 0.100000 0.000000
vn 0.000000 0.100000 0.000000
vn 0.000000 0.100000 0.000000
vn 0.000000 0.100000 0.000000
vn 0.000000 0.100000 0.000000
vn 0.000000 0.100000 0.000000
vn 0.000000 0.100000 0.000000
vn 0.000000 0.100000 0.000000
vn 0.000000 0.100000 0.000000
vn 0.000000 0.100000 0.000000
vn 0.000000 -0.100000 0.000000
vn 0.000000 -0.100000 0.000000
vn 0.000000 -0.100000 0.000000
vn 0.000000 -0.100000 0.000000
vn 0.000000 -0.100000 0.000000
vn 0.000000 -0.100000 0.000000
vn 0.000000 -0.100000 0.000000
vn 0.000000 -0.100000 0.000000
vn 0.000000 -0.100000 0.000000
vn 0.000000 -0.100000 0.000000
usemtl Steel_-_Satin
f 1/1/1 2/2/2 4/3/3
f 4/3/3 2/2/2 3/4/4
f 5/5/5 1/6/6 6/7/7
f 6/7/7 1/6/6 4/8/8
f 7/9/9 5/10/10 8/11/11
f 8/11/11 5/10/10 6/12/12
f 9/13/13 7/14/14 10/15/15
f 10/15/15 7/14/14 8/16/16
f 11/17/17 9/18/18 12/19/19
f 12/19/19 9/18/18 10/20/20
f 13/21/21 11/22/22 14/23/23
f 14/23/23 11/22/22 12/24/24
f 15/25/25 13/26/26 16/27/27
f 16/27/27 13/26/26 14/28/28
f 17/29/29 15/30/30 18/31/31
f 18/31/31 15/30/30 16/32/32
f 19/33/33 17/34/34 20/35/35
f 20/35/35 17/34/34 18/36/36
f 2/37/37 19/38/38 3/39/39
f 3/39/39 19/38/38 20/40/40
f 20/41/41 14/42/42 3/43/43
f 3/43/43 14/42/42 12/44/44
f 3/43/43 12/44/44 10/45/45
f 20/41/41 18/46/46 14/42/42
f 14/42/42 18/46/46 16/47/47
f 3/43/43 10/45/45 4/48/48
f 4/48/48 10/45/45 8/49/49
f 4/48/48 8/49/49 6/50/50
f 17/51/51 19/52/52 13/53/53
f 13/53/53 19/52/52 2/54/54
f 13/53/53 2/54/54 11/55/55
f 11/55/55 2/54/54 9/56/56
f 9/56/56 2/54/54 1/57/57
f 9/56/56 1/57/57 7/58/58
f 7/58/58 1/57/57 5/59/59
f 13/53/53 15/60/60 17/51/51
# 20 vertices
# 60 texture params
# 60 normals
# 36 facets

# 1 groups
